<?xml version="1.0" encoding="utf-8"?>
<!-- Generator: Adobe Illustrator 28.0.0, SVG Export Plug-In . SVG Version: 6.00 Build 0)  -->
<svg version="1.1" id="Capa_1" xmlns="http://www.w3.org/2000/svg" xmlns:xlink="http://www.w3.org/1999/xlink" x="0px" y="0px"
	 viewBox="0 0 792 612" style="enable-background:new 0 0 792 612;" xml:space="preserve">
<style type="text/css">
	.st0{fill:#333333;}
	.st1{fill:#FEFEFE;}
	.st2{fill:none;stroke:#303030;stroke-width:8;stroke-miterlimit:10;}
	.st3{fill:#303030;}
</style>
<path class="st0" d="M615,391.9c1.3,26.9,2.6,53.8,3.9,80.8c0.7,14.7-2.4,19.4-16.7,22.9c-71.7,18-144.6,20.2-217.9,14.6
	c-12.3-0.9-24.5-2.3-36.5-4.9c-11.9-2.5-16.7-8.9-15.6-20.8c1.9-20.5,3.7-41,5.8-61.5c0.6-6.1-0.6-7.7-7.3-7.1
	c-42.9,4-85.8,6.2-128.5-2.2c-9.5-1.9-18-5.9-25.9-11.3c-22.6-19.9-32.5-46.4-38.2-74.9c-7.6-38.2-5.9-75.8,8.4-112.3
	c7.4-19,18.7-35.2,35.7-47c2-1.4,4.3-2.4,4.5-5.4c0.5-10.4,7.6-16.4,15.8-19.8c43.9-18,88.5-25,134.1-5.9c3.3,1.4,6.5,1.7,9.8,1.8
	c15.7,0.7,31.4,0.9,46.9,2.4c7.2,0.7,9.3-1.8,10.6-8.3c3.4-16.9,11.2-31.2,26.1-40.7c14.8-9.6,33.8-8.3,45.2,2.8
	c10.3,10,11.7,27.8,3.3,42.8c-2.1,3.7-4.5,7.1-6.8,10.6c2.2,2.4,4.9,1.4,7.1,2.2c5.5,2,8.4,0.6,10.9-5.5
	c5.2-13.1,13.9-23.8,26.6-30.8c14.9-8.2,29.6-7.5,43.3,2.6c13.4,9.9,14.8,24.1,11.9,39c-2.4,12.2-9.3,21.9-18.6,29.9
	c-2.9,2.5-5.2,4.1-1.7,8.7c36.5,48.7,51.9,105.2,60,164.3C612.5,370,613.6,381,615,391.9z M301.1,201.8c-1.2-0.1-2.5-0.4-3.7-0.3
	c-20.4,1.5-37.5-2.3-52.6-19c-15.8-17.4-37.4-16.8-56.6-2.9c-13.8,10-23.1,23.5-29.5,39.1c-11.7,28.8-13.9,58.8-10.9,89.4
	c2.4,24.4,8.7,47.6,22.2,68.2c6.7,10.3,15.1,19.5,27.7,23c16.9,4.7,34.2,6.5,51.8,6.9c42.9,1.6,85.3-1.9,127.4-9.8
	c4.8-0.9,9-1,10.2,4.5c1.1,5.2-2.8,6.9-7.1,7.7c-6.9,1.3-13.8,2.9-20.8,3.8c-5.8,0.7-8.2,3-8.6,9.2c-1.2,17.8-3.1,35.5-5,53.2
	c-1.9,17.4-1.8,17.7,15.5,20c0.6,0.1,1.2,0.1,1.8,0.2c47.4,6.6,95,6.5,142.6,3.2c31-2.2,61.6-6.7,91.8-14.4c5.6-1.4,9-3.3,8.8-10.4
	c-1.1-39.3-2.6-78.6-8.3-117.6c-8.7-58.4-24.6-114.1-62.7-161.1c-4.3-5.3-3.9-9.2,2-12.8c9.4-5.8,16.6-13.7,20.6-24.1
	c4.7-12,2.4-24.2-5.7-30.5c-9.6-7.4-21.6-7.5-32.6-0.1c-9.8,6.6-16.9,15.8-19.6,27c-2.4,10-7.4,11.6-16.5,10.1
	c-37-6-74.3-9.8-111.8-11.4c-3.1-0.1-7.5-2.4-9.2,1.1c-1.3,2.7,2.5,5.1,4.3,7.5c14,19.1,8.8,32.2-14.3,36.2
	C335.4,200.7,318.2,201,301.1,201.8z M205.2,157.4c24.9-4.1,43,6.9,58,24.9c4.2,5.1,10,5.9,15.7,6.1c23.9,1,47.8,0.5,71.6-3.2
	c13-2,14.4-5.2,6.3-15.6c-12.6-16.3-29.5-25.6-49.7-28.8c-25.9-4.2-51.4-1.5-76.5,5.2C221.7,148.3,213,150.9,205.2,157.4z
	 M447.4,146.5c9.2,0.2,17.8-7.5,22.1-18.4c3.5-8.9,3.9-17.4-3.5-24.7c-6.3-6.2-17.7-7.3-26.7-2.4c-14.2,7.9-21,20.9-24,36.3
	c-0.7,3.7,0.1,5.5,4.4,5.9C429.5,144.1,439.2,145.5,447.4,146.5z"/>
<path class="st1" d="M188.5,437.2c-9.3-0.9-17.6-3.6-23.9-10.8c-1.4-1.6-2.7-3.1-0.6-5.1c2-1.9,3.6-0.4,4.7,0.9
	c5.4,6.2,12.6,8.2,20.3,9.5c2.3,0.4,6.5-0.7,6.1,3.2C194.7,438.7,190.7,436.4,188.5,437.2z"/>
<path class="st2" d="M301.1,201.8c10.5,26.7,12.3,54.7,10.9,82.9c-1.5,30.8-8.2,60.5-24.3,87.1c-7.5,12.4-17.4,22.9-31,29.2
	c-2.7,1.2-5.9,2-7.2,5.3c-17.5-0.3-34.8-2.2-51.8-6.9c-12.6-3.5-21-12.8-27.7-23c-13.5-20.6-19.8-43.8-22.2-68.2
	c-3-30.6-0.8-60.6,10.9-89.4c6.4-15.6,15.7-29.2,29.5-39.1c19.2-13.9,40.8-14.6,56.6,2.9c15.1,16.7,32.3,20.5,52.6,19
	C298.6,201.4,299.8,201.7,301.1,201.8z M216.1,268.2c0-6.1,0-12.3,0-18.4c0-4.1-2.5-6.4-6.2-6.6c-4-0.2-6.1,2.4-6.4,6.3
	c-0.2,2.1-0.1,4.3-0.2,6.4c-0.5,25.2,0.5,50.4,4.3,75.2c2.2,14.6-0.3,24-14.7,29.1c-4.4,1.6-6,5.5-3.8,9.8c2.5,4.8,6.9,4,10.1,1.2
	c13.1-11.7,26.4-9.6,40.2-1.7c1.6,0.9,3.4,1.3,5.1,2.1c4.4,2,8.1,1.1,9.8-3.4c1.6-4.3-1-6.9-4.9-8.5c-6.3-2.5-12.4-5.4-18.8-7.5
	c-5.9-1.9-8.8-4.8-9.6-11.5C218,316.6,217.2,292.4,216.1,268.2z M233.9,242.4c4.8-1.5,11.2-3.4,17.6-5.4c3.3-1,5.2-3.3,4.8-6.9
	c-0.5-4.2-3.9-5.7-7.3-5.4c-7.3,0.6-14.5,2.4-20.8,6.5c-2.4,1.6-3.7,4.1-2.6,7.2C226.7,241.5,229.1,242.5,233.9,242.4z M177.7,224.7
	c-2.9,0.5-6.4,0.3-7.4,4.1c-0.7,2.8-0.4,5.8,2.5,7.2c5.5,2.8,11.1,5.3,17.2,6.3c3,0.5,5.6-0.6,6.9-3.5c1.5-3.3-0.2-6-2.9-7.9
	C189.1,227.5,183.5,226,177.7,224.7z"/>
<path class="st3" d="M412.4,202.9c9.5,0.1,19.1,0.4,28.2,3.4c4.6,1.5,8.9,3.8,7.9,9.6c-1,5.7-5.6,6.7-10.6,6.4
	c-13.2-0.9-26.3-1.9-39.5-2.9c-5.2-0.4-9.1-2.5-9.1-8.2c0-5.8,4.3-7.8,9.3-8.2C403.1,202.6,407.8,202.9,412.4,202.9z"/>
<path class="st3" d="M510.7,163.8c1.9-10.3,5.7-21.4,18.6-26.4c3.7-1.5,8.4-3,10.6,1.6c2.1,4.5-3,5.1-5.7,6.7
	c-8.1,4.8-11.8,12.3-12.6,21.3c-0.4,4-0.9,8-5.7,7.7C510.6,174.4,510.1,170.1,510.7,163.8z"/>
<path class="st3" d="M538.8,238.1c0.1,4.1-0.6,6.7-4,7.4c-3.5,0.7-5.9-0.6-6.9-4.2c-1.7-6.2-4.7-11.8-7.9-17.3
	c-2.1-3.4-0.9-5.8,1.7-7.9c3.1-2.6,5.2-0.3,6.7,2C532.9,224.7,537.4,231.3,538.8,238.1z"/>
<path class="st3" d="M553.7,386.5c0,3.1,0,4.9,0,6.7c0,4-0.8,7.5-5.8,7.3c-4.5-0.2-5-3.5-5.2-7.1c-0.3-6,0.8-12.1-1.3-18.1
	c-1-2.7,0.4-4.9,3.1-5.6c2.9-0.8,5.5-0.2,6.9,2.8C553.5,377.5,554.1,382.6,553.7,386.5z"/>
<path class="st3" d="M393.1,452.4c0,3.1,0.1,6.1,0,9.2c-0.2,3.6-2.1,5.7-5.8,5.5c-3.3-0.2-4.9-2.2-5-5.4c-0.1-5.5,0-11-0.1-16.5
	c0-4.1,0.9-7.5,5.9-7.3c4.5,0.2,5.1,3.6,5.1,7.2C393.2,447.6,393.2,450,393.1,452.4C393.2,452.4,393.1,452.4,393.1,452.4z"/>
<path class="st3" d="M579.5,414.7c-1.8,3.3,3.9,11.3-4.4,11.5c-7.6,0.2-6.1-7.4-6.5-12.6c-0.2-2.7-0.1-5.5-0.1-8.2
	c0-3.4-0.3-7.6,4.2-7.8c4.8-0.2,6.6,3.5,6.8,8C579.5,408.4,579.5,411.1,579.5,414.7z"/>
<path class="st3" d="M524.1,267.3c-0.1,3.7-1.4,5.5-4.2,6.1c-2.7,0.5-5.3-0.1-6.1-2.8c-1.7-5.6-4.4-10.7-7.1-15.8
	c-1.5-2.9-1.6-6.1,1.8-8c3.1-1.8,5.2,0.5,7.1,2.6C520.3,254.6,520.2,262.2,524.1,267.3z"/>
<path class="st3" d="M406.2,465.5c1.5-3.9-3.4-12.3,5.1-12.5c9.5-0.3,4.6,8.5,5.9,13.3c0.2,0.9,0,1.8,0,2.7c0.2,4.8-0.3,10.4-6,10.5
	c-7,0.1-4.3-6.5-5-10.5C406,468.1,406.2,467.2,406.2,465.5z"/>
<path class="st3" d="M570.2,360.6c0.1,4-1.1,6.6-4.9,6.9c-3.6,0.3-5.5-1.6-6.1-5.2c-0.6-3.6-1.3-7.1-2.6-10.5
	c-1.4-3.9,0.6-5.9,3.4-7.3c3.6-1.7,6.2,0.7,7.3,3.5C569,352.1,569.4,356.7,570.2,360.6z"/>
<path class="st3" d="M216.1,268.2c1.2,24.2,2,48.4,4.9,72.5c0.8,6.7,3.7,9.6,9.6,11.5c6.4,2.1,12.5,5,18.8,7.5
	c3.9,1.6,6.5,4.2,4.9,8.5c-1.7,4.6-5.4,5.4-9.8,3.4c-1.7-0.8-3.5-1.2-5.1-2.1c-13.8-7.9-27.1-10-40.2,1.7c-3.2,2.9-7.6,3.6-10.1-1.2
	c-2.2-4.2-0.6-8.2,3.8-9.8c14.4-5.1,16.9-14.5,14.7-29.1c-3.7-24.8-4.8-50-4.3-75.2c0-2.1,0-4.3,0.2-6.4c0.3-3.9,2.4-6.6,6.4-6.3
	c3.7,0.2,6.2,2.5,6.2,6.6C216.1,255.9,216.1,262.1,216.1,268.2z"/>
<path class="st3" d="M233.9,242.4c-4.8,0.1-7.1-0.9-8.2-4c-1.1-3.1,0.2-5.6,2.6-7.2c6.3-4.1,13.4-5.9,20.8-6.5
	c3.4-0.3,6.8,1.2,7.3,5.4c0.4,3.5-1.5,5.8-4.8,6.9C245.1,239,238.7,240.9,233.9,242.4z"/>
<path class="st3" d="M177.7,224.7c5.7,1.3,11.4,2.8,16.3,6.2c2.7,1.9,4.3,4.6,2.9,7.9c-1.2,2.8-3.9,3.9-6.9,3.5
	c-6.1-0.9-11.8-3.5-17.2-6.3c-2.9-1.5-3.2-4.4-2.5-7.2C171.3,225,174.8,225.2,177.7,224.7z"/>
<path class="st3" d="M448.6,236.4"/>
<g>
	<circle class="st3" cx="455.9" cy="253.8" r="12.4"/>
	<polyline class="st3" points="443.5,251.7 453.4,220.1 468.3,251.7 	"/>
</g>
</svg>
